# xmcd
#
# Track frame offsets:
#	150
#	27998
#	65425
#	99233
#	126648
#	160073
#	192305
#	231238
#
# Disc length: 3870 seconds
#
# Revision: 1
# Processed by: cddbd v1.5.2PL0 Copyright (c) Steve Scherf et al.
# Submitted via: audiograbber 1.83.01
#
DISCID=690f1c08
DTITLE=Grateful Dead - 89-10-23 Charlotte Coliseum, Charlotte NC
DYEAR=1900
DGENRE=
TTITLE0=California Earthquake
TTITLE1=Feel Like A Stranger
TTITLE2=Loser
TTITLE3=Walkin Blues
TTITLE4=Bertha
TTITLE5=When I Paint My Masterpiece
TTITLE6=Tennessee Jed
TTITLE7=Let It Grow
EXTD=
EXTT0=
EXTT1=
EXTT2=
EXTT3=
EXTT4=
EXTT5=
EXTT6=
EXTT7=
PLAYORDER=
